<?xml version="1.0" encoding="UTF-8"?>
<svg width="373px" height="229px" viewBox="0 0 373 229" version="1.1" xmlns="http://www.w3.org/2000/svg" xmlns:xlink="http://www.w3.org/1999/xlink">
    <!-- Generator: Sketch 46.2 (44496) - http://www.bohemiancoding.com/sketch -->
    <title>Group 3</title>
    <desc>Created with Sketch.</desc>
    <defs>
        <polygon id="path-1" points="0 175.896582 372.214794 175.896582 372.214794 -2.84217094e-14 0 -2.84217094e-14"></polygon>
    </defs>
    <g id="Contact-us" stroke="none" stroke-width="1" fill="none" fill-rule="evenodd">
        <g id="Contact-us---Support" transform="translate(-890.000000, -122.000000)">
            <g id="Group-3" transform="translate(890.000000, 123.000000)">
                <g id="Page-1" transform="translate(64.000000, 0.000000)">
                    <path d="M220.217968,4.29553224 C219.891635,4.0131916 218.296331,5.20612753 217.966268,4.9275265 C217.95135,4.9275265 215.729486,6.05688904 215.714568,6.05688904 L57.1818104,1 C44.7112133,15.5115607 45.6566478,28.7759611 22.9764777,45.0685115 C19.3840133,47.649778 16.0927081,49.6560793 13,51.2781356 L13,228 L254,228 L254,47.5656368 C231.647096,20.9816767 236.518787,18.4060196 220.217968,4.29553224" id="Fill-3" fill="#D6E1EE"></path>
                    <path d="M246,228 L5,228 L5,35.3528605 C5,16.3809569 20.3394744,1 39.2611431,1 L211.738857,1 C230.660526,1 246,16.3809569 246,35.3528605 L246,228 Z" id="Fill-5" fill="#FFFFFF"></path>
                    <g id="Group-10" transform="translate(5.000000, 0.000000)">
                        <path d="M0.39626332,227.470928 L0.39626332,34.9211902 C0.39626332,15.9588787 15.767468,0.585698361 34.7294293,0.585698361 L207.574425,0.585698361 C226.536387,0.585698361 241.90946,15.9588787 241.90946,34.9211902 L241.90946,227.470928" id="Fill-7" fill="#FFFFFF"></path>
                        <path d="M0.39626332,227.470928 L0.39626332,34.9211902 C0.39626332,15.9588787 15.767468,0.585698361 34.7294293,0.585698361 L207.574425,0.585698361 C226.536387,0.585698361 241.90946,15.9588787 241.90946,34.9211902 L241.90946,227.470928" id="Stroke-9" stroke="#7E8DE8" stroke-width="2"></path>
                    </g>
                    <g id="Group-14" transform="translate(21.000000, 50.000000)">
                        <path d="M0.639669955,177.46956 L0.639669955,6.22512842 C0.639669955,3.06047579 3.19349955,0.495402105 6.34427982,0.495402105 L202.009787,0.495402105 C205.160567,0.495402105 207.715329,3.06047579 207.715329,6.22512842 L207.715329,177.46956" id="Fill-11" fill="#FAFCFF"></path>
                        <path d="M0.639669955,177.46956 L0.639669955,6.22512842 C0.639669955,3.06047579 3.19349955,0.495402105 6.34427982,0.495402105 L202.009787,0.495402105 C205.160567,0.495402105 207.715329,3.06047579 207.715329,6.22512842 L207.715329,177.46956" id="Stroke-13" stroke="#D6E1EE"></path>
                    </g>
                    <path d="M5,99 L2.16008389,99 C0.967319119,99 0,97.9713292 0,96.7008371 L0,78.2982328 C0,77.0296009 0.967319119,76 2.16008389,76 L5,76 L5,99 Z" id="Fill-15" fill="#FFFFFF"></path>
                    <path d="M5,99 L2.16008389,99 C0.967319119,99 0,97.9713292 0,96.7008371 L0,78.2982328 C0,77.0296009 0.967319119,76 2.16008389,76 L5,76 L5,99 Z" id="Stroke-17" stroke="#7E8DE8" stroke-width="2"></path>
                    <path d="M5,123 L2.16008389,123 C0.967319119,123 0,121.971329 0,120.701767 L0,102.299163 C0,101.029601 0.967319119,100 2.16008389,100 L5,100 L5,123 Z" id="Fill-19" fill="#FFFFFF"></path>
                    <path d="M5,123 L2.16008389,123 C0.967319119,123 0,121.971329 0,120.701767 L0,102.299163 C0,101.029601 0.967319119,100 2.16008389,100 L5,100 L5,123 Z" id="Stroke-21" stroke="#7E8DE8" stroke-width="2"></path>
                    <path d="M246,81 L248.467162,81 C249.866362,81 251,82.105885 251,83.4708312 L251,107.529169 C251,108.894115 249.866362,110 248.467162,110 L246,110 L246,81 Z" id="Fill-23" fill="#FFFFFF"></path>
                    <path d="M246,81 L248.467162,81 C249.866362,81 251,82.105885 251,83.4708312 L251,107.529169 C251,108.894115 249.866362,110 248.467162,110 L246,110 L246,81 Z" id="Stroke-25" stroke="#7E8DE8" stroke-width="2"></path>
                    <path d="M147.154205,30 L104.845795,30 C102.721789,30 101,28.2091725 101,26 C101,23.7908275 102.721789,22 104.845795,22 L147.154205,22 C149.278211,22 151,23.7908275 151,26 C151,28.2091725 149.278211,30 147.154205,30" id="Fill-27" fill="#EBF4FF"></path>
                    <path d="M147.154205,30 L104.845795,30 C102.721789,30 101,28.2091725 101,26 C101,23.7908275 102.721789,22 104.845795,22 L147.154205,22 C149.278211,22 151,23.7908275 151,26 C151,28.2091725 149.278211,30 147.154205,30" id="Fill-29" fill="#D6E1EE"></path>
                    <path d="M82.500462,32 L82.500462,32 C78.9097306,32 76,29.0904762 76,25.5 C76,21.9104478 78.9097306,19 82.500462,19 C86.0902694,19 89,21.9104478 89,25.5 C89,29.0904762 86.0902694,32 82.500462,32" id="Fill-31" fill="#D6E1EE"></path>
                    <path d="M165,27 L165,27 C163.894918,27 163,26.1052745 163,25.0004306 C163,23.8964478 163.894918,23 165,23 C166.10422,23 167,23.8964478 167,25.0004306 C167,26.1052745 166.10422,27 165,27" id="Fill-35" fill="#D6E1EE"></path>
                </g>
                <g id="Page-1-Copy-2" transform="translate(186.500000, 140.000000) scale(-1, 1) translate(-186.500000, -140.000000) translate(0.000000, 52.000000)">
                    <path d="M136.0837,74.159412 C138.280475,74.0149237 140.35945,75.1662287 141.402159,77.1053172 L187.6964,163.141209 C189.659417,166.789309 187.134092,171.235316 182.995468,171.419377 L136.544775,173.478106 C134.362725,173.574738 132.322403,172.398585 131.311905,170.462257 L86.9079753,85.2988172 C85.0314678,81.6985732 93.6345048,71.4757946 97.6847792,71.2089053 L136.0837,74.159412 Z" id="Fill-1" fill="#87C8F4"></path>
                    <path d="M142.245897,71.2214215 L97.6855155,71.2094575 C93.6343207,71.4754264 91.1936645,75.8165182 93.0701721,79.4158418 L137.474101,164.579282 C138.484599,166.51653 140.524922,167.692683 142.706971,167.596051 L189.157665,165.537322 C193.296289,165.353261 195.820693,160.907254 193.858597,157.258233 L147.564356,74.1664064 C146.521647,72.2282382 144.442672,71.0769332 142.245897,71.2214215" id="Fill-3" fill="#B5D8F5"></path>
                    <path d="M124.065309,63.4653438 L96.8683742,63.4653438 C95.148319,63.4653438 93.7540528,62.0710775 93.7540528,60.3510223 L93.7540528,52.2007767 C93.7540528,50.4816418 95.148319,49.0864552 96.8683742,49.0864552 L124.065309,49.0864552 C125.785365,49.0864552 127.17871,50.4816418 127.17871,52.2007767 L127.17871,60.3510223 C127.17871,62.0710775 125.785365,63.4653438 124.065309,63.4653438" id="Fill-5" fill="#87C8F4"></path>
                    <path d="M130.787421,63.4653438 L103.590486,63.4653438 C101.870431,63.4653438 100.476165,62.0710775 100.476165,60.3510223 L100.476165,52.2007767 C100.476165,50.4816418 101.870431,49.0864552 103.590486,49.0864552 L130.787421,49.0864552 C132.507476,49.0864552 133.901743,50.4816418 133.901743,52.2007767 L133.901743,60.3510223 C133.901743,62.0710775 132.507476,63.4653438 130.787421,63.4653438" id="Fill-7" fill="#B5D8F5"></path>
                    <mask id="mask-2" fill="white">
                        <use xlink:href="#path-1"></use>
                    </mask>
                    <g id="Clip-10"></g>
                    <polygon id="Fill-9" fill="#87C8F4" mask="url(#mask-2)" points="103.603647 71.4011576 106.54495 71.4011576 106.54495 63.4653438 103.603647 63.4653438"></polygon>
                    <polygon id="Fill-11" fill="#87C8F4" mask="url(#mask-2)" points="123.772191 71.4011576 126.712575 71.4011576 126.712575 63.4653438 123.772191 63.4653438"></polygon>
                    <path d="M49.0620671,110.922854 C48.2853273,107.414641 50.5253564,106.255053 51.9039775,106.128971 C53.2825985,106.002889 55.1342577,104.375785 55.0956048,102.277483 C55.0229005,98.4351982 53.1344289,96.0341152 54.5204124,94.1253969 C55.6827611,92.5231411 58.2577823,94.062816 60.2189581,92.2010334 C61.9574195,90.5509216 60.6027265,88.7057045 62.2648023,86.2217939 C63.9627701,83.6854257 67.3421402,82.6703262 69.7137733,82.5911797 C72.9882284,82.4825834 73.4106496,84.1869934 75.8494652,83.5989167 C78.6812522,82.9160484 79.0733033,80.3888832 82.119522,79.9563386 C83.2036445,79.8035675 84.1156695,79.7952847 85.6921567,80.4827546 C89.8040918,82.2782751 93.9657235,83.2998167 92.4278893,87.9832629 C90.8891347,92.6667091 88.1328129,95.4635244 85.8909432,95.6899201 C83.6490735,95.9163158 81.66489,94.8662447 79.8905366,95.8528146 C78.1161832,96.8403048 78.8082547,99.7153463 79.3779252,101.991267 C79.9475957,104.267189 77.5989703,106.5155 74.6374199,105.769131 C71.6758695,105.022761 68.7713782,104.940854 67.0053076,107.487345 C65.3413911,109.883827 69.234293,113.427932 68.1658157,115.830856 C67.0973384,118.233779 64.0170683,119.145804 61.4760985,119.930827 C60.5778781,120.206919 54.9658414,120.141577 54.9658414,120.141577 C54.8047875,119.862724 49.8498505,114.480764 49.0620671,110.922854 Z" id="Fill-12" fill="#54C59A" mask="url(#mask-2)"></path>
                    <path d="M56.6321506,129.112737 L55.4339099,129.357539 L54.5761831,125.163697 C54.0727747,122.702794 54.3783169,119.815788 54.3912012,119.694308 C54.9571905,114.501011 57.1732916,104.557085 65.6530073,96.3037654 C71.5880721,90.5269936 78.2179693,87.9363272 82.7357601,86.7822613 L83.0385413,87.9666974 C78.6652388,89.0848713 72.2470125,91.589949 66.5061326,97.1798984 C58.3006686,105.166329 56.1554312,114.79643 55.6069278,119.826832 C55.6041669,119.854441 55.3096684,122.648495 55.7744238,124.918895 L56.6321506,129.112737 Z" id="Fill-13" fill="#FFFFFF" mask="url(#mask-2)"></path>
                    <path d="M49.8533477,122.312951 C49.325091,122.089316 36.5180882,119.760018 31.5843183,115.55145 C26.7204917,111.402703 28.6568193,107.353349 30.4799489,105.695874 C32.3021583,104.03932 33.1874944,99.7433237 30.8812031,96.804781 C26.6597514,91.4255821 21.4020332,90.0405189 21.3228867,85.8448358 C21.2557042,82.3237383 26.5640394,81.7467053 27.3527432,77.0015985 C28.0521771,72.7948717 24.1500721,71.6260808 23.8463706,66.315905 C23.5371472,60.8934517 27.2478281,55.828998 30.5324065,53.1729898 C35.0640019,49.5083243 37.4917738,51.475022 40.3254014,48.0247882 C43.6145814,44.0196088 41.4601409,40.0089076 45.3245132,36.1298103 C46.699453,34.7493487 47.9860432,33.7581772 50.9623186,33.0449387 C58.7269552,31.185917 65.7323379,28.1728294 68.5696467,36.4749258 C71.4069556,44.7751815 70.490329,51.7014177 67.5499457,54.4282896 C64.6086421,57.1542412 60.6660436,57.7892536 59.2045949,61.0931585 C57.7431462,64.3979836 61.8090659,67.7387008 65.0577523,70.3597373 C68.307359,72.9816942 67.38337,78.6940445 62.3778161,80.8089117 C57.3713418,82.9237789 53.1590932,85.9221416 53.3808874,91.4320242 C53.5888769,96.6207194 62.9171164,97.4784462 63.9763907,102.036731 C65.0356649,106.595015 61.6406496,111.192873 58.8714435,115.031476 C57.8931563,116.38801 49.8533477,122.312951 49.8533477,122.312951" id="Fill-14" fill="#6EE1C0" mask="url(#mask-2)"></path>
                    <path d="M54.9865483,129.774715 C54.8678286,129.646792 43.096172,116.819542 42.2964246,98.6600294 C41.502199,80.6256784 46.3752286,63.1711214 46.4249252,62.9981035 L53.7174439,44.1400771 L54.8577052,44.5818248 L47.5835927,63.3846328 C47.5523022,63.5033525 42.7335707,80.7747683 43.5185933,98.6048109 C44.2980939,116.319815 55.7651287,128.816674 55.8810875,128.940916 L54.9865483,129.774715 Z" id="Fill-15" fill="#FFFFFF" mask="url(#mask-2)"></path>
                    <path d="M78.7505514,130.326991 L30.1997152,130.326991 C29.5582607,130.326991 29.0392071,129.807938 29.0392071,129.166483 L29.0392071,125.318676 C29.0392071,124.677222 29.5582607,124.158168 30.1997152,124.158168 L78.7505514,124.158168 C79.3910856,124.158168 79.9101391,124.677222 79.9101391,125.318676 L79.9101391,129.166483 C79.9101391,129.807938 79.3910856,130.326991 78.7505514,130.326991" id="Fill-16" fill="#87C8F4" mask="url(#mask-2)"></path>
                    <path d="M69.6921461,167.607554 L39.2575683,167.607554 C37.6488703,167.607554 36.2941773,166.402872 36.1064345,164.805217 L32.0487976,130.326807 L76.9009168,130.326807 L72.8432799,164.805217 C72.6555371,166.402872 71.3017644,167.607554 69.6921461,167.607554" id="Fill-17" fill="#B5D8F5" mask="url(#mask-2)"></path>
                    <path d="M210.83984,61.7784196 C210.83984,61.7784196 208.078917,60.397958 205.663109,56.0264961 C203.247301,51.6550342 203.707455,43.3722643 201.981878,41.6466873 C200.256301,39.9211102 195.05012,38.6520058 195.05012,38.6520058 L200.651113,62.003895 L202.55707,64.5393429 L210.83984,61.7784196 Z" id="Fill-18" fill="#F7B89C" mask="url(#mask-2)"></path>
                    <path d="M185.524658,28.407784 C185.524658,28.407784 192.499671,30.4996435 194.242734,33.6388133 C195.625956,36.1282458 200.30112,56.612456 202.174866,64.976213 C202.497894,66.4192556 198.264479,69.2179115 196.925431,68.5902616 L188.837766,61.8867398 L179.770894,27.5353322 L185.524658,28.407784 Z" id="Fill-19" fill="#112956" mask="url(#mask-2)"></path>
                    <path d="M182.560163,29.9415689 C182.560163,29.9415689 189.535175,32.0334285 191.279159,35.1725982 C192.662381,37.6620307 197.336624,58.146241 199.210371,66.5099979 C199.534319,67.9539608 198.057225,69.1365563 196.718177,68.5079861 L185.873271,63.4205248 L176.806399,29.0700375 L182.560163,29.9415689 Z" id="Fill-20" fill="#01082D" mask="url(#mask-2)"></path>
                    <path d="M141.816758,99.280961 C148.361066,90.4938625 157.297255,93.0136652 162.983836,84.7861137 C167.007422,78.9651671 166.684394,71.6974967 165.74476,66.3799584 L180.469684,64.5393429 C180.587483,68.2748721 181.38447,73.534431 185.071223,77.4236516 C190.23691,82.8727939 195.746793,80.0106368 206.391993,83.865806 L180.776146,99.280961 L141.816758,99.280961 Z" id="Fill-21" fill="#F4AE92" mask="url(#mask-2)"></path>
                    <path d="M178.045777,73.2944147 C176.675439,74.3490874 174.887281,74.6969638 173.221524,74.234049 L166.336701,72.3216494 C166.305411,70.2067822 166.06337,68.1802645 165.744944,66.3801425 L180.469868,64.539527 C180.526927,66.3534536 180.748721,68.5281408 181.379132,70.7304373 L178.045777,73.2944147 Z" id="Fill-22" fill="#F29C81" mask="url(#mask-2)"></path>
                    <path d="M181.389992,26.8067246 L186.531751,56.3394007 C187.327817,60.230462 185.835998,64.234721 182.687625,66.6560508 L178.045593,70.2268449 C176.675255,71.2815176 174.888017,71.6293939 173.22134,71.1664791 L164.318282,68.6936122 C161.161627,67.8165589 158.603171,65.5019848 157.415974,62.449324 L154.701066,55.3362653 L149.17922,37.8504177" id="Fill-23" fill="#F7B89C" mask="url(#mask-2)"></path>
                    <path d="M173.107222,29.5676479 C173.572897,29.9100024 180.957447,35.1980908 186.911838,32.3285712 C193.549098,29.1305017 193.892373,17.9736106 190.499198,11.1614926 C186.004415,2.13511401 174.098393,-0.978287154 166.111042,1.34456964 C160.535818,2.96707223 161.157946,5.99212386 152.920271,10.7013387 C144.318154,15.6185431 135.371842,17.0468607 131.693372,17.6036469 C123.001986,18.919687 119.03638,17.6735903 114.337288,21.3373355 C112.151557,23.0417455 110.182099,25.4060162 108.685678,28.6473401 C103.163832,40.611341 111.446601,51.6550342 113.287217,54.4159575 C115.127832,57.1768808 127.091833,66.3799584 132.61368,68.220574 C134.968748,69.0055965 150.957254,73.6936443 155.621374,67.3002662 C160.615884,60.4540968 148.82122,46.0825707 153.780759,41.5316488 C155.985816,39.5088123 159.001665,41.717551 163.904144,39.6910333 C168.876567,37.635986 171.617243,32.9479383 173.107222,29.5676479" id="Fill-24" fill="#112956" mask="url(#mask-2)"></path>
                    <path d="M128.012141,61.7784196 C139.055834,65.4596507 143.657373,60.8581119 147.338604,57.1768808 C149.23904,55.2764453 149.671584,50.1880636 151.287645,45.4567614 C152.960764,51.4516462 159.924733,62.9969071 155.621374,67.3002662 C151.019835,71.901805 138.135527,70.0611895 132.61368,68.220574 C127.091833,66.3799584 115.127832,57.1768808 113.287217,54.4159575 C113.129844,54.1794384 112.921855,53.8775775 112.681654,53.523259 C116.642659,56.3734521 122.199477,59.8411718 128.012141,61.7784196" id="Fill-25" fill="#01082D" mask="url(#mask-2)"></path>
                    <polygon id="Fill-26" fill="#FF6D4A" mask="url(#mask-2)" points="229.982518 98.5345914 235.228272 104.572731 221.763249 93.0099839"></polygon>
                    <path d="M86.5982918,107.793808 C92.0041796,109.817565 98.3497016,112.73402 105.004447,116.996886 C116.651862,124.4569 124.593198,133.059937 129.62268,139.544426 C131.290277,135.184008 133.645345,128.535704 135.834757,120.217963 C139.519669,106.221922 138.44383,103.809796 141.816758,99.280961 C147.95245,91.0414456 156.191965,92.7430947 161.884068,86.2052283 C164.672601,89.9453591 169.118608,92.3786528 174.142568,92.3786528 C181.523436,92.3786528 187.680295,87.152225 189.122417,80.2002202 C193.342949,81.8549335 198.43133,80.9824818 206.391993,83.865806 C206.391993,83.865806 209.858792,83.5584232 229.58927,98.9192801 C229.848797,99.1226681 230.190231,98.7913573 229.982241,98.5345914 C227.062105,94.9260647 220.772722,87.140261 218.202302,83.865806 C215.488315,80.4082097 211.140781,75.071345 202.55707,64.5393429 L210.83984,61.7784196 C218.747124,71.3652656 225.616301,78.886941 230.626457,84.1722685 C230.626457,84.1722685 250.412154,105.046689 250.413074,115.15627 C250.413074,116.058172 250.026545,116.605755 250.026545,116.605755 C248.769404,118.563249 244.891227,117.917193 244.891227,117.917193 L214.521071,108.714116 C212.453139,127.674296 213.038455,140.63407 214.060917,149.207657 C214.293755,151.155949 215.17633,158.142005 216.361687,167.613813 L154.701066,167.613813 L151.759763,130.109431 C149.473718,136.483482 143.892052,150.380129 135.60468,154.039273 C133.722651,154.870311 132.023763,155.620362 129.62268,155.649812 C119.896867,155.769452 117.370622,143.842263 100.919201,129.225015 C100.723175,129.050156 94.7871903,124.419168 82.9170607,115.15627 L86.5982918,107.793808 Z" id="Fill-27" fill="#FF9090" mask="url(#mask-2)"></path>
                    <polygon id="Fill-28" fill="#FF6D4A" mask="url(#mask-2)" points="154.701066 115.309501 151.759763 130.109891 154.701066 167.613352"></polygon>
                    <polygon id="Fill-29" fill="#FF6D4A" mask="url(#mask-2)" points="214.521071 108.714116 207.04357 105.262962 214.060917 149.207657"></polygon>
                    <path d="M372.214978,175.896582 L0.000184061553,175.896582 C0.000184061553,171.321733 3.70810405,167.613813 8.28295394,167.613813 L363.932208,167.613813 C368.507058,167.613813 372.214978,171.321733 372.214978,175.896582" id="Fill-30" fill="#7AC3FF" mask="url(#mask-2)"></path>
                    <path d="M86.5982918,107.793808 C86.5982918,107.793808 78.7756758,102.732115 72.4872128,101.505345 C66.1978295,100.277654 71.1067512,103.038578 71.1067512,103.038578 L75.4009072,104.492664 C75.4009072,104.492664 68.1921365,102.11827 65.7376757,102.732115 C63.2841352,103.34596 62.3638274,107.793808 62.3638274,107.793808 C62.3638274,107.793808 67.5782912,109.17427 71.566905,109.940886 C75.5545986,110.708423 82.9170607,115.15627 82.9170607,115.15627 L86.5982918,107.793808 Z" id="Fill-31" fill="#F7B89C" mask="url(#mask-2)"></path>
                    <path d="M215.936596,34.8000577 C215.936596,36.9278092 214.21194,38.652466 212.084188,38.652466 C209.957357,38.652466 208.2327,36.9278092 208.2327,34.8000577 C208.2327,32.6723061 209.957357,30.9476494 212.084188,30.9476494 C214.21194,30.9476494 215.936596,32.6723061 215.936596,34.8000577" id="Fill-33" fill="#FAFCFF" mask="url(#mask-2)"></path>
                    <path d="M182.25186,167.613813 L166.471343,167.613813 C165.223405,167.613813 164.211067,166.602394 164.211067,165.353537 L164.211067,148.089483 C164.211067,146.841546 165.223405,145.830128 166.471343,145.830128 L182.25186,145.830128 C183.499797,145.830128 184.512136,146.841546 184.512136,148.089483 L184.512136,165.353537 C184.512136,166.602394 183.499797,167.613813 182.25186,167.613813" id="Fill-36" fill="#FFFFFF" mask="url(#mask-2)"></path>
                    <path d="M185.757404,159.756133 C183.852367,159.756133 182.30717,158.211856 182.30717,156.306819 C182.30717,154.401782 183.852367,152.856586 185.757404,152.856586 C187.662441,152.856586 189.206718,154.401782 189.206718,156.306819 C189.206718,158.211856 187.662441,159.756133 185.757404,159.756133 M185.757404,149.982464 C182.264836,149.982464 179.433049,152.814251 179.433049,156.306819 C179.433049,159.799387 182.264836,162.631174 185.757404,162.631174 C189.249972,162.631174 192.081759,159.799387 192.081759,156.306819 C192.081759,152.814251 189.249972,149.982464 185.757404,149.982464" id="Fill-37" fill="#FFFFFF" mask="url(#mask-2)"></path>
                </g>
            </g>
        </g>
    </g>
</svg>